<svg xmlns="http://www.w3.org/2000/svg" xmlns:xlink="http://www.w3.org/1999/xlink" viewBox="0 0 66.93 41.45"><defs><style>.cls-1{isolation:isolate;}.cls-2{fill:#7a7a79;}.cls-3{fill:#828281;}.cls-4{fill:#8a8a8a;}.cls-5{fill:#929292;}.cls-6{fill:#9a9b9a;}.cls-7{fill:#a2a3a2;}.cls-8{fill:#aaabab;}.cls-9{fill:#b3b3b3;}.cls-10{fill:#bbb;}.cls-11{fill:#c3c3c3;}.cls-12{fill:#cbcbcc;}.cls-13{fill:#bfbfbf;}.cls-14{fill:url(#linear-gradient);}.cls-15{fill:url(#New_Gradient_Swatch_107);}.cls-16{fill:url(#linear-gradient-2);}.cls-17{opacity:0.45;fill:url(#White_Black);}.cls-17,.cls-50{mix-blend-mode:multiply;}.cls-18{mix-blend-mode:hard-light;fill:url(#linear-gradient-3);}.cls-19{stroke:#997413;stroke-linecap:round;stroke-linejoin:round;fill:url(#linear-gradient-4);}.cls-20{fill:url(#linear-gradient-5);}.cls-21{fill:#fbf7e2;}.cls-22,.cls-23,.cls-24,.cls-25,.cls-26,.cls-27,.cls-28,.cls-29,.cls-30,.cls-31,.cls-32,.cls-33,.cls-34,.cls-35,.cls-36,.cls-37,.cls-38,.cls-39,.cls-40,.cls-41,.cls-42,.cls-43,.cls-44{fill:#ccc5d1;}.cls-22{opacity:0;}.cls-23{opacity:0.05;}.cls-24{opacity:0.09;}.cls-25{opacity:0.14;}.cls-26{opacity:0.18;}.cls-27{opacity:0.23;}.cls-28{opacity:0.27;}.cls-29{opacity:0.32;}.cls-30{opacity:0.36;}.cls-31{opacity:0.41;}.cls-32{opacity:0.45;}.cls-33,.cls-47{opacity:0.5;}.cls-34{opacity:0.55;}.cls-35{opacity:0.59;}.cls-36{opacity:0.64;}.cls-37{opacity:0.68;}.cls-38{opacity:0.73;}.cls-39{opacity:0.77;}.cls-40{opacity:0.82;}.cls-41{opacity:0.86;}.cls-42{opacity:0.91;}.cls-43{opacity:0.95;}.cls-45{fill:url(#linear-gradient-6);}.cls-46{fill:url(#linear-gradient-7);}.cls-47,.cls-48,.cls-49{mix-blend-mode:screen;}.cls-47{fill:url(#linear-gradient-8);}.cls-48{fill:#f1f7fc;opacity:0.7;}.cls-49{fill:#d5e2f2;opacity:0.84;}.cls-50{opacity:0.8;fill:url(#linear-gradient-9);}.cls-51{fill:url(#未命名的渐变_3);}.cls-52{fill:#fff;stroke:#fff;stroke-width:1.7px;}</style><linearGradient id="linear-gradient" x1="24.98" y1="3.93" x2="24.98" y2="34.18" gradientUnits="userSpaceOnUse"><stop offset="0" stop-color="#958189"/><stop offset="0.02" stop-color="#96a1d0"/><stop offset="0.1" stop-color="#8887bb"/><stop offset="1" stop-color="#2e4992"/></linearGradient><linearGradient id="New_Gradient_Swatch_107" x1="25.17" y1="5.32" x2="25.17" y2="12.21" gradientUnits="userSpaceOnUse"><stop offset="0" stop-color="#997413"/><stop offset="1" stop-color="#6d3f01"/></linearGradient><linearGradient id="linear-gradient-2" x1="25.26" y1="0.54" x2="25.26" y2="33.52" gradientUnits="userSpaceOnUse"><stop offset="0" stop-color="#fefcf5"/><stop offset="0.14" stop-color="#fbf6dc"/><stop offset="0.15" stop-color="#f8f0c8"/><stop offset="1" stop-color="#f6c24f"/></linearGradient><linearGradient id="White_Black" x1="43.12" y1="6.51" x2="43.12" y2="33.6" gradientUnits="userSpaceOnUse"><stop offset="0" stop-color="#fff"/><stop offset="1"/></linearGradient><linearGradient id="linear-gradient-3" x1="11.47" y1="3.51" x2="22.95" y2="3.51" gradientUnits="userSpaceOnUse"><stop offset="0" stop-color="#fff"/><stop offset="0.27" stop-color="#fcfdfe"/><stop offset="0.44" stop-color="#f4f7fb"/><stop offset="0.58" stop-color="#e5ecf6"/><stop offset="0.7" stop-color="#d0ddef"/><stop offset="0.82" stop-color="#b6c9e6"/><stop offset="0.93" stop-color="#95b1db"/><stop offset="1" stop-color="#7a9dd2"/></linearGradient><linearGradient id="linear-gradient-4" x1="5.96" y1="9.61" x2="5.96" y2="9.61" gradientUnits="userSpaceOnUse"><stop offset="0" stop-color="#f8e098"/><stop offset="1" stop-color="#f8d078"/></linearGradient><linearGradient id="linear-gradient-5" x1="10.21" y1="5.66" x2="31.1" y2="5.66" gradientUnits="userSpaceOnUse"><stop offset="0" stop-color="#fbf2c5"/><stop offset="0.65" stop-color="#d8b070"/><stop offset="0.95" stop-color="#997413"/></linearGradient><linearGradient id="linear-gradient-6" x1="39.36" y1="5.3" x2="28.32" y2="29.73" gradientUnits="userSpaceOnUse"><stop offset="0.01" stop-color="#576fc4"/><stop offset="0.29" stop-color="#536bc2"/><stop offset="0.59" stop-color="#4660be"/><stop offset="0.9" stop-color="#314eb6"/><stop offset="1" stop-color="#2846b3"/></linearGradient><linearGradient id="linear-gradient-7" x1="30.58" y1="13.51" x2="30.58" y2="36.68" gradientUnits="userSpaceOnUse"><stop offset="0" stop-color="#b1e1fd"/><stop offset="1" stop-color="#92b5eb"/></linearGradient><linearGradient id="linear-gradient-8" x1="30.61" y1="13.5" x2="30.61" y2="36.66" gradientUnits="userSpaceOnUse"><stop offset="0"/><stop offset="0.02" stop-color="#3c4142"/><stop offset="0.07" stop-color="#d2e1e6"/><stop offset="0.08" stop-color="#e8f8fe"/><stop offset="0.19" stop-color="#b2bec3"/><stop offset="0.3" stop-color="#838c8f"/><stop offset="0.42" stop-color="#5b6163"/><stop offset="0.53" stop-color="#3a3e3f"/><stop offset="0.65" stop-color="#212324"/><stop offset="0.77" stop-color="#0e0f10"/><stop offset="0.88" stop-color="#040404"/><stop offset="1"/></linearGradient><linearGradient id="linear-gradient-9" x1="-1042.15" y1="29.76" x2="-1023.75" y2="48.16" gradientTransform="matrix(1, 0, -0.49, 1, 1089.59, 0)" gradientUnits="userSpaceOnUse"><stop offset="0.01" stop-color="#fff"/><stop offset="0.15" stop-color="#fbfbfb"/><stop offset="0.31" stop-color="#eee"/><stop offset="0.47" stop-color="#d9d9d9"/><stop offset="0.64" stop-color="#bbb"/><stop offset="0.8" stop-color="#959595"/><stop offset="0.97" stop-color="#666"/><stop offset="1" stop-color="#5d5d5d"/></linearGradient><radialGradient id="未命名的渐变_3" cx="-30.96" cy="249.87" r="6.99" gradientTransform="matrix(1.7, 0, 0, -1.7, 65.36, 455.61)" gradientUnits="userSpaceOnUse"><stop offset="0" stop-color="#c8c8c8" stop-opacity="0.56"/><stop offset="1" stop-color="#646464"/></radialGradient></defs><title>connecting</title><g class="cls-1"><g id="图层_2" data-name="图层 2"><g id="图标"><g id="connecting"><path class="cls-2" d="M45.61,4.61a.7.7,0,0,0-.73.68.7.7,0,0,0,.73.68H48.4l.35.75a.75.75,0,0,0,1,.35.65.65,0,0,0,.38-.89L49.55,5a.73.73,0,0,0-.67-.41Z"/><path class="cls-3" d="M45.6,4.65a.63.63,0,1,0,0,1.26h2.82l.36.77a.7.7,0,0,0,.89.33A.61.61,0,0,0,50,6.18L49.49,5a.68.68,0,0,0-.62-.38Z"/><path class="cls-4" d="M45.59,4.68a.59.59,0,1,0,0,1.17h2.86l.38.8a.65.65,0,0,0,.83.3A.57.57,0,0,0,50,6.18L49.43,5a.63.63,0,0,0-.58-.35Z"/><path class="cls-5" d="M45.58,4.71a.54.54,0,1,0,0,1.07h2.89l.39.83a.6.6,0,0,0,.76.28.52.52,0,0,0,.3-.71L49.38,5a.58.58,0,0,0-.53-.33Z"/><path class="cls-6" d="M45.57,4.74a.49.49,0,1,0,0,1h2.92l.4.86a.54.54,0,0,0,.7.25.48.48,0,0,0,.27-.65L49.32,5a.53.53,0,0,0-.48-.3Z"/><path class="cls-7" d="M45.56,4.77a.45.45,0,1,0,0,.89h3l.41.89a.49.49,0,0,0,.63.23.43.43,0,0,0,.25-.58L49.27,5a.48.48,0,0,0-.44-.27Z"/><path class="cls-8" d="M45.55,4.8a.4.4,0,1,0,0,.8h3l.43.91a.44.44,0,0,0,.56.21.39.39,0,0,0,.22-.52L49.21,5a.43.43,0,0,0-.39-.24Z"/><path class="cls-9" d="M45.54,4.84a.35.35,0,1,0,0,.71h3l.44.94a.39.39,0,0,0,.5.18.34.34,0,0,0,.2-.46l-.54-1.15a.38.38,0,0,0-.35-.21Z"/><path class="cls-10" d="M45.53,4.87a.31.31,0,1,0,0,.61h3.05l.45,1a.34.34,0,0,0,.43.16.3.3,0,0,0,.17-.4L49.1,5.06a.33.33,0,0,0-.3-.19Z"/><path class="cls-11" d="M45.52,4.9a.26.26,0,1,0,0,.52H48.6l.47,1a.29.29,0,0,0,.37.14.25.25,0,0,0,.15-.34L49,5.06a.28.28,0,0,0-.26-.16Z"/><path class="cls-12" d="M45.51,4.93a.22.22,0,0,0-.23.22.22.22,0,0,0,.23.21h3.12l.48,1a.24.24,0,0,0,.3.11.21.21,0,0,0,.12-.28L49,5.06a.23.23,0,0,0-.21-.13Z"/><path class="cls-13" d="M45.5,5a.18.18,0,0,0-.18.17.17.17,0,0,0,.18.17h3.15l.49,1.05a.19.19,0,0,0,.24.09.17.17,0,0,0,.1-.22l-.54-1.15a.18.18,0,0,0-.17-.1Z"/><path class="cls-2" d="M4.54,4.73a.68.68,0,1,1,0,1.35H1.75l-.35.75a.75.75,0,0,1-1,.35.66.66,0,0,1-.38-.89L.6,5.13a.73.73,0,0,1,.67-.41Z"/><path class="cls-3" d="M4.55,4.76A.63.63,0,1,1,4.55,6H1.72l-.36.77a.7.7,0,0,1-.89.33.61.61,0,0,1-.35-.83L.66,5.14a.68.68,0,0,1,.62-.38Z"/><path class="cls-4" d="M4.56,4.79A.59.59,0,1,1,4.56,6H1.7l-.38.8a.65.65,0,0,1-.83.3.57.57,0,0,1-.33-.77L.71,5.14a.63.63,0,0,1,.58-.35Z"/><path class="cls-5" d="M4.57,4.82a.54.54,0,1,1,0,1.08H1.68l-.39.83A.6.6,0,0,1,.53,7a.52.52,0,0,1-.3-.71L.77,5.15a.58.58,0,0,1,.53-.33Z"/><path class="cls-6" d="M4.58,4.85a.49.49,0,1,1,0,1H1.66l-.4.86a.54.54,0,0,1-.69.25A.48.48,0,0,1,.28,6.3L.82,5.15a.53.53,0,0,1,.49-.3Z"/><path class="cls-7" d="M4.59,4.89a.45.45,0,1,1,0,.89h-3l-.42.89a.49.49,0,0,1-.63.23.43.43,0,0,1-.25-.58L.88,5.16a.48.48,0,0,1,.44-.27Z"/><path class="cls-8" d="M4.6,4.92a.4.4,0,1,1,0,.8h-3l-.43.91a.44.44,0,0,1-.56.21.39.39,0,0,1-.22-.52L.93,5.16a.43.43,0,0,1,.4-.24Z"/><path class="cls-9" d="M4.61,4.95a.35.35,0,1,1,0,.71h-3l-.44.94a.39.39,0,0,1-.5.18.34.34,0,0,1-.2-.46L1,5.16a.38.38,0,0,1,.35-.21Z"/><path class="cls-10" d="M4.62,5a.31.31,0,1,1,0,.61H1.56l-.45,1a.34.34,0,0,1-.43.16.3.3,0,0,1-.17-.4L1,5.17A.33.33,0,0,1,1.35,5Z"/><path class="cls-11" d="M4.63,5a.26.26,0,1,1,0,.52H1.54l-.47,1a.29.29,0,0,1-.37.14.25.25,0,0,1-.15-.34L1.1,5.17A.29.29,0,0,1,1.36,5Z"/><path class="cls-12" d="M4.64,5a.23.23,0,0,1,.23.22.22.22,0,0,1-.23.21H1.52L1,6.5a.23.23,0,0,1-.3.11.21.21,0,0,1-.12-.28l.54-1.15A.24.24,0,0,1,1.37,5Z"/><path class="cls-13" d="M4.65,5.08a.18.18,0,0,1,.18.17.18.18,0,0,1-.18.17H1.5L1,6.47a.18.18,0,0,1-.24.09.16.16,0,0,1-.09-.22l.54-1.15a.19.19,0,0,1,.17-.1Z"/><path class="cls-14" d="M46.1,36V4.56a.83.83,0,0,0-.87-.86l-40.6.11c-.69,0-.77.5-.77.9V36.08Z"/><path class="cls-15" d="M26,0H14.33c-1.86,0-2.64.27-3.63,1.26A17.68,17.68,0,0,0,8.52,5.21H6.15a.94.94,0,0,0-.94.94V33.6a.94.94,0,0,0,.94.94h38a.94.94,0,0,0,.94-.94L45,6.15a.94.94,0,0,0-.94-.94H31.91l-2.6-3.85-.11-.14A3.74,3.74,0,0,0,26,0ZM9.13,7.09A.94.94,0,0,0,10,6.52a21.6,21.6,0,0,1,2-3.91c.51-.5.71-.71,2.3-.71h12a2,2,0,0,1,1.49.64l2.8,4.15a.94.94,0,0,0,.78.42H43.16c0,1.69.07,23.87.08,25.57H7.09V7.09Z"/><path class="cls-16" d="M44.19,6.16H31.5L28.62,1.89A2.85,2.85,0,0,0,26.29,1H14.42c-1.73,0-2.23.25-3,1A24,24,0,0,0,9.22,6.15h-3V33.6h38Z"/><polygon class="cls-17" points="44.37 32.71 44.15 6.15 41.87 6.07 44.37 32.71"/><path class="cls-18" d="M9.21,6.06a33.53,33.53,0,0,1,2-3.85c.62-.79.91-1.26,3.61-1.26H27.41S15.13,1.41,13.08,2.3A9.7,9.7,0,0,0,9.21,6.06Z"/><path class="cls-19" d="M6,9.61"/><polygon class="cls-20" points="31.6 6.14 9.78 6.14 10.35 5.18 30.88 5.18 31.6 6.14"/><path class="cls-21" d="M6.6,30.85,5.17,33.42l0-26.51S5.26,6,6.73,6.13Z"/><path class="cls-22" d="M66.17,28.22c-3,2.26-7,4.59-7,4.59l-7.3,4.25a9.59,9.59,0,0,1-4.34,1.15h-44c-4.1,0-1.29-1.74-1.29-1.74l26.87-9.93s15.77-.85,16.73-.85H64.16C65.38,25.69,68.3,26.62,66.17,28.22Z"/><path class="cls-23" d="M65.39,28.52c-2.92,2.19-6.72,4.41-6.72,4.41l-7,4.1a9.4,9.4,0,0,1-4.23,1.12H3.73c-4,0-1.23-1.73-1.23-1.73l26.68-9.54s15.38-.82,16.3-.82h18C64.64,26.07,67.46,27,65.39,28.52Z"/><path class="cls-24" d="M64.62,28.82c-2.82,2.11-6.45,4.24-6.45,4.24L51.42,37a9.21,9.21,0,0,1-4.11,1.1H3.89C0,38.1,2.72,36.4,2.72,36.4L29.2,27.25s15-.79,15.88-.79H62.75C63.89,26.46,66.62,27.33,64.62,28.82Z"/><path class="cls-25" d="M63.85,29.13c-2.71,2-6.19,4.07-6.19,4.07L51.19,37a9,9,0,0,1-4,1.07H4.05C.2,38,2.94,36.36,2.94,36.36L29.23,27.6s14.6-.75,15.46-.75H62C63.15,26.85,65.77,27.68,63.85,29.13Z"/><path class="cls-26" d="M63.08,29.43c-2.61,2-5.92,3.9-5.92,3.9L51,37a8.82,8.82,0,0,1-3.88,1H4.21c-3.78,0-1.06-1.68-1.06-1.68L29.25,28s14.21-.72,15-.72H61.34C62.4,27.24,64.93,28,63.08,29.43Z"/><path class="cls-27" d="M62.31,29.73c-2.51,1.88-5.65,3.72-5.65,3.72l-5.93,3.49A8.63,8.63,0,0,1,47,38H4.37c-3.7,0-1-1.66-1-1.66l25.9-8s13.81-.69,14.61-.69H60.64C61.66,27.62,64.09,28.39,62.31,29.73Z"/><path class="cls-28" d="M61.54,30c-2.41,1.81-5.38,3.55-5.38,3.55l-5.66,3.33a8.44,8.44,0,0,1-3.64,1H4.53c-3.62,0-.94-1.65-.94-1.65l25.7-7.59S42.72,28,43.48,28H59.94C60.91,28,63.25,28.75,61.54,30Z"/><path class="cls-29" d="M60.77,30.33c-2.31,1.73-5.11,3.38-5.11,3.38l-5.38,3.18a8.25,8.25,0,0,1-3.52,1H4.69c-3.54,0-.88-1.63-.88-1.63L29.32,29s13-.62,13.76-.62H59.23C60.17,28.4,62.4,29.11,60.77,30.33Z"/><path class="cls-30" d="M60,30.64c-2.21,1.66-4.84,3.21-4.84,3.21l-5.11,3a8.07,8.07,0,0,1-3.41.93H4.85c-3.46,0-.82-1.61-.82-1.61l25.31-6.81s12.64-.59,13.34-.59H58.53C59.42,28.78,61.56,29.46,60,30.64Z"/><path class="cls-31" d="M59.23,30.94c-2.11,1.58-4.57,3-4.57,3l-4.84,2.87a7.88,7.88,0,0,1-3.29.9H5c-3.38,0-.76-1.6-.76-1.6l25.11-6.42s12.25-.56,12.92-.56H57.83C58.68,29.17,60.72,29.82,59.23,30.94Z"/><path class="cls-32" d="M58.46,31.24c-2,1.51-4.3,2.86-4.3,2.86l-4.56,2.72a7.7,7.7,0,0,1-3.17.87c-1.58,0-40.31,0-41.24,0-3.3,0-.7-1.58-.7-1.58l24.92-6s11.86-.53,12.5-.53H57.12C57.94,29.56,59.88,30.17,58.46,31.24Z"/><path class="cls-33" d="M57.68,31.54c-1.9,1.43-4,2.69-4,2.69L49.36,36.8a7.52,7.52,0,0,1-3.06.84c-1.5,0-40.09,0-41,0-3.23,0-.64-1.56-.64-1.56l24.72-5.64s11.47-.49,12.07-.49H56.42C57.19,29.94,59,30.53,57.68,31.54Z"/><path class="cls-34" d="M56.91,31.84c-1.8,1.35-3.76,2.52-3.76,2.52l-4,2.41a7.34,7.34,0,0,1-2.94.82c-1.42,0-39.87,0-40.7,0-3.15,0-.58-1.55-.58-1.55l24.52-5.25s11.08-.46,11.65-.46H55.72C56.45,30.33,58.19,30.88,56.91,31.84Z"/><path class="cls-35" d="M56.14,32.14c-1.7,1.28-3.5,2.34-3.5,2.34l-3.74,2.26a7.17,7.17,0,0,1-2.82.79c-1.34,0-39.64,0-40.43,0-3.07,0-.52-1.53-.52-1.53l24.33-4.86s10.69-.43,11.23-.43H55C55.7,30.72,57.35,31.24,56.14,32.14Z"/><path class="cls-36" d="M55.37,32.45c-1.6,1.2-3.23,2.17-3.23,2.17l-3.47,2.11a7,7,0,0,1-2.71.76c-1.26,0-39.42,0-40.16,0-3-.05-.46-1.52-.46-1.52L29.48,31.5s10.29-.4,10.8-.4h14C55,31.1,56.51,31.6,55.37,32.45Z"/><path class="cls-37" d="M54.6,32.75c-1.5,1.13-3,2-3,2l-3.2,2a6.84,6.84,0,0,1-2.59.73c-1.18,0-39.19,0-39.89,0-2.91-.06-.4-1.5-.4-1.5l23.94-4.08s9.9-.36,10.38-.36H53.6C54.21,31.49,55.66,32,54.6,32.75Z"/><path class="cls-38" d="M53.83,33.05c-1.4,1.05-2.69,1.83-2.69,1.83l-2.92,1.8a6.68,6.68,0,0,1-2.47.7c-1.1,0-39,0-39.62,0-2.83-.06-.34-1.48-.34-1.48l23.74-3.69s9.51-.33,10-.33H52.9C53.47,31.88,54.82,32.31,53.83,33.05Z"/><path class="cls-39" d="M53.06,33.35c-1.3,1-2.42,1.66-2.42,1.66L48,36.65a6.53,6.53,0,0,1-2.35.68c-1,0-38.74,0-39.35,0C3.54,37.26,6,35.86,6,35.86l23.55-3.3s9.12-.3,9.53-.3H52.2C52.72,32.26,54,32.66,53.06,33.35Z"/><path class="cls-40" d="M52.29,33.65c-1.2.9-2.15,1.48-2.15,1.48l-2.38,1.49a6.39,6.39,0,0,1-2.24.65c-.94,0-38.52,0-39.07,0-2.67-.07-.22-1.45-.22-1.45l23.35-2.91s8.73-.27,9.11-.27h12.8C52,32.65,53.14,33,52.29,33.65Z"/><path class="cls-41" d="M51.52,34c-1.09.82-1.88,1.31-1.88,1.31l-2.1,1.34a6.26,6.26,0,0,1-2.12.62c-.86,0-38.29,0-38.8,0-2.59-.08-.16-1.44-.16-1.44L29.6,33.27,38.29,33h12.5C51.23,33,52.29,33.37,51.52,34Z"/><path class="cls-42" d="M50.75,34.26c-1,.75-1.61,1.14-1.61,1.14l-1.83,1.19a6.14,6.14,0,0,1-2,.59c-.78,0-38.07,0-38.53,0-2.51-.08-.1-1.42-.1-1.42l23-2.13,8.26-.2h12.2C50.49,33.43,51.45,33.73,50.75,34.26Z"/><path class="cls-43" d="M50,34.56c-.89.67-1.34,1-1.34,1l-1.55,1a6.05,6.05,0,0,1-1.89.56c-.7,0-37.85,0-38.26,0-2.43-.1,0-1.4,0-1.4L29.65,34l7.84-.17H49.38C49.74,33.81,50.61,34.09,50,34.56Z"/><path class="cls-44" d="M49.2,34.86c-.79.6-1.07.79-1.07.79l-1.28.88a6,6,0,0,1-1.77.54c-.62,0-37.62,0-38,0-2.36-.1,0-1.39,0-1.39l22.57-1.35,7.42-.14H48.68C49,34.2,49.76,34.44,49.2,34.86Z"/><path class="cls-2" d="M55.51,14a.68.68,0,1,0,0,1.35H58.3l.35.75a.76.76,0,0,0,1,.35.66.66,0,0,0,.38-.89l-.54-1.15a.73.73,0,0,0-.66-.41Z"/><path class="cls-3" d="M55.5,14a.63.63,0,1,0,0,1.26h2.82l.36.77a.7.7,0,0,0,.89.33.61.61,0,0,0,.35-.83l-.54-1.15a.68.68,0,0,0-.62-.38Z"/><path class="cls-4" d="M55.49,14.05a.59.59,0,1,0,0,1.17h2.86l.38.8a.65.65,0,0,0,.83.3.57.57,0,0,0,.32-.77l-.54-1.15a.63.63,0,0,0-.57-.35Z"/><path class="cls-5" d="M55.48,14.09a.54.54,0,1,0,0,1.08h2.89l.39.83a.6.6,0,0,0,.76.28.52.52,0,0,0,.3-.71l-.54-1.15a.58.58,0,0,0-.53-.33Z"/><path class="cls-6" d="M55.47,14.12a.49.49,0,1,0,0,1h2.92l.4.86a.55.55,0,0,0,.7.26.48.48,0,0,0,.27-.65l-.54-1.15a.53.53,0,0,0-.48-.3Z"/><path class="cls-7" d="M55.46,14.15a.45.45,0,1,0,0,.89h3l.41.88a.5.5,0,0,0,.63.23.43.43,0,0,0,.25-.59l-.54-1.15a.48.48,0,0,0-.44-.27Z"/><path class="cls-8" d="M55.45,14.18a.4.4,0,1,0,0,.8h3l.43.91a.45.45,0,0,0,.57.21.39.39,0,0,0,.22-.53l-.54-1.15a.43.43,0,0,0-.39-.24Z"/><path class="cls-9" d="M55.44,14.21a.36.36,0,1,0,0,.71h3l.44.94a.39.39,0,0,0,.5.19.34.34,0,0,0,.2-.47l-.54-1.15a.38.38,0,0,0-.35-.22Z"/><path class="cls-10" d="M55.43,14.25a.31.31,0,1,0,0,.62h3.05l.45,1a.34.34,0,0,0,.44.16.3.3,0,0,0,.17-.41L59,14.43a.33.33,0,0,0-.3-.19Z"/><path class="cls-11" d="M55.42,14.28a.26.26,0,1,0,0,.52H58.5l.47,1a.29.29,0,0,0,.37.14.26.26,0,0,0,.14-.35l-.54-1.15a.28.28,0,0,0-.26-.16Z"/><path class="cls-12" d="M55.41,14.31a.22.22,0,1,0,0,.43h3.12l.48,1a.24.24,0,0,0,.31.12.21.21,0,0,0,.12-.29l-.54-1.15a.24.24,0,0,0-.21-.13Z"/><path class="cls-13" d="M55.4,14.34a.17.17,0,1,0,0,.34h3.15l.49,1a.19.19,0,0,0,.24.09.17.17,0,0,0,.09-.22l-.54-1.15a.19.19,0,0,0-.17-.11Z"/><path class="cls-2" d="M15.19,14a.68.68,0,1,1,0,1.35H12.4l-.35.75a.75.75,0,0,1-1,.35.66.66,0,0,1-.38-.89l.54-1.15a.73.73,0,0,1,.67-.41Z"/><path class="cls-3" d="M15.2,14a.63.63,0,1,1,0,1.26H12.38L12,16a.7.7,0,0,1-.89.33.61.61,0,0,1-.35-.83l.54-1.15a.68.68,0,0,1,.62-.38Z"/><path class="cls-4" d="M15.21,14a.59.59,0,1,1,0,1.17H12.36L12,16a.65.65,0,0,1-.83.3.57.57,0,0,1-.33-.77l.54-1.15a.63.63,0,0,1,.58-.35Z"/><path class="cls-5" d="M15.22,14.07a.54.54,0,1,1,0,1.08H12.33l-.39.83a.6.6,0,0,1-.76.28.52.52,0,0,1-.3-.71l.54-1.15a.58.58,0,0,1,.53-.33Z"/><path class="cls-6" d="M15.23,14.1a.49.49,0,1,1,0,1H12.31l-.4.86a.55.55,0,0,1-.7.26.48.48,0,0,1-.28-.65l.54-1.15a.53.53,0,0,1,.49-.3Z"/><path class="cls-7" d="M15.24,14.14a.45.45,0,1,1,0,.89h-3l-.41.88a.5.5,0,0,1-.63.23.43.43,0,0,1-.25-.59l.54-1.15a.48.48,0,0,1,.44-.27Z"/><path class="cls-8" d="M15.25,14.17a.4.4,0,1,1,0,.8h-3l-.43.91a.45.45,0,0,1-.57.21.39.39,0,0,1-.22-.53l.54-1.15a.43.43,0,0,1,.4-.24Z"/><path class="cls-9" d="M15.26,14.2a.36.36,0,1,1,0,.71h-3l-.44.94a.4.4,0,0,1-.5.19.35.35,0,0,1-.2-.47l.54-1.15A.38.38,0,0,1,12,14.2Z"/><path class="cls-10" d="M15.27,14.23a.31.31,0,1,1,0,.62H12.22l-.45,1a.34.34,0,0,1-.44.16.3.3,0,0,1-.17-.41l.54-1.15a.33.33,0,0,1,.3-.19Z"/><path class="cls-11" d="M15.28,14.26a.26.26,0,1,1,0,.52H12.2l-.47,1a.29.29,0,0,1-.37.14.26.26,0,0,1-.15-.35l.54-1.15a.28.28,0,0,1,.26-.16Z"/><path class="cls-12" d="M15.29,14.3a.22.22,0,1,1,0,.43H12.18l-.48,1a.24.24,0,0,1-.31.12.21.21,0,0,1-.12-.29l.54-1.15A.23.23,0,0,1,12,14.3Z"/><path class="cls-13" d="M15.3,14.33a.17.17,0,1,1,0,.34H12.16l-.49,1a.19.19,0,0,1-.24.09.17.17,0,0,1-.1-.22l.54-1.15a.18.18,0,0,1,.17-.11Z"/><path class="cls-45" d="M15.86,12.44A1,1,0,0,0,15,13l-11,22.6A1,1,0,0,0,4.83,37H45.29a1,1,0,0,0,.9-.56l11-22.6a1,1,0,0,0-.9-1.44Z"/><polygon class="cls-46" points="56.33 13.44 45.29 36.04 4.83 36.04 15.86 13.44 56.33 13.44"/><polygon class="cls-47" points="56.36 13.43 45.33 36.02 4.86 36.02 15.9 13.43 56.36 13.43"/><polygon class="cls-48" points="15.89 13.44 56.34 13.44 55.96 14.17 15.5 14.17 15.89 13.44"/><path class="cls-49" d="M55.67,15.09l-39.48.08-10,20.56s3.49-6.11,4.91-8.11C14.51,22.8,17,15.09,55.67,15.09Z"/><path class="cls-50" d="M5.38,36h39.9L55.7,14.69S47.55,28.38,42.6,31.33C42.6,31.33,41.56,33.85,5.38,36Z"/><g id="layer1"><path id="path3183" class="cls-51" d="M24.42,29.66A11.78,11.78,0,1,1,12.65,17.87,11.78,11.78,0,0,1,24.42,29.66Z"/><path id="path4164" class="cls-52" d="M4.13,31.71,2.52,33.58a13.94,13.94,0,0,0,5.86,6.13C14,35.28,18,28.43,21.3,22.15c-2.06.26-7.51,9-13.24,12.92C7,36,5,33.83,4.13,31.71Z"/></g></g></g></g></g></svg>