<svg xmlns="http://www.w3.org/2000/svg" xmlns:xlink="http://www.w3.org/1999/xlink" viewBox="0 0 52.46 44.58"><defs><style>.cls-1,.cls-38{fill:none;}.cls-2{isolation:isolate;}.cls-16,.cls-3{fill:#7a7a79;}.cls-10,.cls-11,.cls-12,.cls-13,.cls-14,.cls-29,.cls-3,.cls-35,.cls-36,.cls-4,.cls-41,.cls-5,.cls-6,.cls-7,.cls-8,.cls-9{opacity:0.8;}.cls-17,.cls-4{fill:#828281;}.cls-18,.cls-5{fill:#8a8a8a;}.cls-19,.cls-6{fill:#929292;}.cls-20,.cls-7{fill:#9a9b9a;}.cls-21,.cls-8{fill:#a2a3a2;}.cls-22,.cls-9{fill:#aaabab;}.cls-10,.cls-23{fill:#b3b3b3;}.cls-11,.cls-24{fill:#bbb;}.cls-12,.cls-25{fill:#c3c3c3;}.cls-13,.cls-26{fill:#cbcbcc;}.cls-14,.cls-27{fill:#bfbfbf;}.cls-15{fill:url(#linear-gradient);}.cls-28{opacity:0.6;fill:url(#linear-gradient-2);}.cls-28,.cls-29,.cls-35,.cls-36,.cls-41{mix-blend-mode:multiply;}.cls-29{fill:url(#linear-gradient-3);}.cls-30{fill:url(#linear-gradient-4);}.cls-31{fill:url(#linear-gradient-5);}.cls-32{fill:url(#linear-gradient-6);}.cls-33{fill:#f1f7fc;opacity:0.7;}.cls-34{fill:#d5e2f2;opacity:0.84;}.cls-35{fill:url(#linear-gradient-7);}.cls-36{fill:url(#linear-gradient-8);}.cls-37{clip-path:url(#clip-path);}.cls-38{stroke:#997413;stroke-width:1.21px;}.cls-39{fill:url(#linear-gradient-9);}.cls-40,.cls-42{mix-blend-mode:hard-light;}.cls-40{fill:url(#linear-gradient-10);}.cls-41{fill:url(#linear-gradient-11);}.cls-42{fill:url(#linear-gradient-12);}.cls-43,.cls-44,.cls-45{stroke:#e05e22;stroke-opacity:0.5;}.cls-43{fill:url(#未命名的渐变_5);}.cls-44{stroke-width:1.74px;}.cls-45{stroke-width:1.58px;}</style><linearGradient id="linear-gradient" x1="62.36" y1="41.13" x2="62.36" y2="11.78" gradientTransform="matrix(-1, 0, 0, 1, 90.41, 0)" gradientUnits="userSpaceOnUse"><stop offset="0" stop-color="#315e82"/><stop offset="1" stop-color="#3e72a7"/></linearGradient><linearGradient id="linear-gradient-2" x1="28.74" y1="12.31" x2="29.79" y2="6.45" gradientTransform="translate(-0.95 -1.64)" gradientUnits="userSpaceOnUse"><stop offset="0.01" stop-color="#fff"/><stop offset="0.15" stop-color="#fbfbfb"/><stop offset="0.31" stop-color="#eee"/><stop offset="0.47" stop-color="#d9d9d9"/><stop offset="0.64" stop-color="#bbb"/><stop offset="0.8" stop-color="#959595"/><stop offset="0.97" stop-color="#666"/><stop offset="1" stop-color="#5d5d5d"/></linearGradient><linearGradient id="linear-gradient-3" x1="48.41" y1="39.54" x2="48.41" y2="9.94" gradientTransform="matrix(1, 0, 0, 1, 0, 0)" xlink:href="#linear-gradient-2"/><linearGradient id="linear-gradient-4" x1="27.41" y1="41.39" x2="27.41" y2="9.83" gradientTransform="matrix(1, 0, 0, 1, 0, 0)" xlink:href="#linear-gradient"/><linearGradient id="linear-gradient-5" x1="27.41" y1="36.46" x2="27.41" y2="6.89" gradientUnits="userSpaceOnUse"><stop offset="0" stop-color="#d1f0f4"/><stop offset="1" stop-color="#809fcd"/></linearGradient><linearGradient id="linear-gradient-6" x1="47.27" y1="10.61" x2="7.25" y2="10.61" gradientUnits="userSpaceOnUse"><stop offset="0" stop-color="#c6e4f0"/><stop offset="1" stop-color="#abc1e2"/></linearGradient><linearGradient id="linear-gradient-7" x1="33.08" y1="32.92" x2="51.47" y2="51.32" gradientTransform="matrix(1, 0, 0, 1, 0, 0)" xlink:href="#linear-gradient-2"/><linearGradient id="linear-gradient-8" x1="5.63" y1="7.99" x2="9.1" y2="7.99" gradientTransform="matrix(1, 0, 0, 1, 0, 0)" xlink:href="#linear-gradient-2"/><clipPath id="clip-path" transform="translate(0 -1.64)"><rect id="SVGID" class="cls-1" x="4.35" width="45.3" height="9.69"/></clipPath><linearGradient id="linear-gradient-9" x1="27.1" y1="32.81" x2="27.1" y2="4.59" gradientUnits="userSpaceOnUse"><stop offset="0" stop-color="#f0ecd6"/><stop offset="0.49" stop-color="#f9df85"/><stop offset="1" stop-color="#f3ae52"/></linearGradient><linearGradient id="linear-gradient-10" x1="13.47" y1="16.38" x2="36.21" y2="16.38" gradientUnits="userSpaceOnUse"><stop offset="0" stop-color="#fff"/><stop offset="0.27" stop-color="#fcfdfe"/><stop offset="0.44" stop-color="#f4f7fb"/><stop offset="0.58" stop-color="#e5ecf6"/><stop offset="0.7" stop-color="#d0ddef"/><stop offset="0.82" stop-color="#b6c9e6"/><stop offset="0.93" stop-color="#95b1db"/><stop offset="1" stop-color="#7a9dd2"/></linearGradient><linearGradient id="linear-gradient-11" x1="32.31" y1="26.35" x2="48.55" y2="42.59" gradientTransform="matrix(1, 0, 0, 1, 0, 0)" xlink:href="#linear-gradient-2"/><linearGradient id="linear-gradient-12" x1="15.01" y1="5.06" x2="24.8" y2="5.06" xlink:href="#linear-gradient-10"/><radialGradient id="未命名的渐变_5" cx="-72.39" cy="469.02" r="7.17" gradientTransform="matrix(2.08, -0.02, -0.02, -1.72, 172.43, 844.14)" gradientUnits="userSpaceOnUse"><stop offset="0" stop-color="#ff0"/><stop offset="1" stop-color="#ff7e00"/></radialGradient></defs><title>error_closed</title><g class="cls-2"><g id="图层_2" data-name="图层 2"><g id="图标"><g id="error_closed"><path class="cls-3" d="M7.28,9.3a.68.68,0,1,1,0,1.35H5.49l-.35.75a.75.75,0,0,1-1,.35.66.66,0,0,1-.38-.89l.54-1.15A.73.73,0,0,1,5,9.3Z" transform="translate(0 -1.64)"/><path class="cls-4" d="M7.29,9.34a.63.63,0,1,1,0,1.26H5.47l-.36.77a.7.7,0,0,1-.89.33.61.61,0,0,1-.35-.83L4.4,9.72A.68.68,0,0,1,5,9.34Z" transform="translate(0 -1.64)"/><path class="cls-5" d="M7.3,9.37a.59.59,0,1,1,0,1.17H5.45l-.38.8a.65.65,0,0,1-.83.3.57.57,0,0,1-.33-.77l.54-1.15A.63.63,0,0,1,5,9.37Z" transform="translate(0 -1.64)"/><path class="cls-6" d="M7.31,9.4a.54.54,0,1,1,0,1.08H5.42L5,11.31a.6.6,0,0,1-.76.28.52.52,0,0,1-.3-.71l.54-1.15A.58.58,0,0,1,5,9.4Z" transform="translate(0 -1.64)"/><path class="cls-7" d="M7.32,9.43a.49.49,0,1,1,0,1H5.4l-.4.86a.54.54,0,0,1-.69.25A.48.48,0,0,1,4,10.88l.54-1.15a.53.53,0,0,1,.49-.3Z" transform="translate(0 -1.64)"/><path class="cls-8" d="M7.33,9.46a.45.45,0,1,1,0,.89h-2L5,11.24a.49.49,0,0,1-.63.23.43.43,0,0,1-.25-.58l.54-1.15a.48.48,0,0,1,.44-.27Z" transform="translate(0 -1.64)"/><path class="cls-9" d="M7.34,9.5a.4.4,0,1,1,0,.8h-2l-.43.91a.44.44,0,0,1-.56.21.39.39,0,0,1-.22-.52l.54-1.15a.43.43,0,0,1,.4-.24Z" transform="translate(0 -1.64)"/><path class="cls-10" d="M7.35,9.53a.35.35,0,1,1,0,.71h-2l-.44.94a.39.39,0,0,1-.5.18.34.34,0,0,1-.2-.46l.54-1.15a.38.38,0,0,1,.35-.21Z" transform="translate(0 -1.64)"/><path class="cls-11" d="M7.36,9.56a.31.31,0,1,1,0,.61H5.31l-.45,1a.34.34,0,0,1-.43.16.3.3,0,0,1-.17-.4l.54-1.15a.33.33,0,0,1,.31-.19Z" transform="translate(0 -1.64)"/><path class="cls-12" d="M7.37,9.59a.26.26,0,1,1,0,.52H5.29l-.47,1a.29.29,0,0,1-.37.14.25.25,0,0,1-.15-.34l.54-1.15a.29.29,0,0,1,.26-.16Z" transform="translate(0 -1.64)"/><path class="cls-13" d="M7.38,9.62a.23.23,0,0,1,.23.22.22.22,0,0,1-.23.21H5.26l-.48,1a.23.23,0,0,1-.3.11.21.21,0,0,1-.12-.28L4.9,9.76a.24.24,0,0,1,.21-.13Z" transform="translate(0 -1.64)"/><path class="cls-14" d="M7.39,9.66a.18.18,0,0,1,.18.17.18.18,0,0,1-.18.17H5.24L4.75,11a.18.18,0,0,1-.24.09.16.16,0,0,1-.09-.22L5,9.76a.19.19,0,0,1,.17-.1Z" transform="translate(0 -1.64)"/><path class="cls-3" d="M48.92,9.3a.68.68,0,1,0,0,1.35h1.79l.35.75a.75.75,0,0,0,1,.35.65.65,0,0,0,.38-.89l-.54-1.15a.73.73,0,0,0-.67-.41Z" transform="translate(0 -1.64)"/><path class="cls-4" d="M48.91,9.34a.63.63,0,1,0,0,1.26h1.82l.36.77a.7.7,0,0,0,.89.33.61.61,0,0,0,.35-.83L51.8,9.72a.68.68,0,0,0-.62-.38Z" transform="translate(0 -1.64)"/><path class="cls-5" d="M48.9,9.37a.59.59,0,1,0,0,1.17h1.86l.38.8a.65.65,0,0,0,.83.3.57.57,0,0,0,.33-.77l-.54-1.15a.63.63,0,0,0-.58-.35Z" transform="translate(0 -1.64)"/><path class="cls-6" d="M48.89,9.4a.54.54,0,1,0,0,1.08h1.89l.39.83a.6.6,0,0,0,.76.28.52.52,0,0,0,.3-.71l-.54-1.15a.58.58,0,0,0-.53-.33Z" transform="translate(0 -1.64)"/><path class="cls-7" d="M48.88,9.43a.49.49,0,1,0,0,1H50.8l.4.86a.54.54,0,0,0,.7.25.48.48,0,0,0,.27-.65l-.54-1.15a.53.53,0,0,0-.48-.3Z" transform="translate(0 -1.64)"/><path class="cls-8" d="M48.87,9.46a.45.45,0,1,0,0,.89h2l.41.89a.49.49,0,0,0,.63.23.43.43,0,0,0,.25-.58l-.54-1.15a.48.48,0,0,0-.44-.27Z" transform="translate(0 -1.64)"/><path class="cls-9" d="M48.86,9.5a.4.4,0,1,0,0,.8h2l.43.91a.44.44,0,0,0,.56.21.39.39,0,0,0,.22-.52l-.54-1.15a.43.43,0,0,0-.39-.24Z" transform="translate(0 -1.64)"/><path class="cls-10" d="M48.85,9.53a.35.35,0,1,0,0,.71h2l.44.94a.39.39,0,0,0,.5.18.34.34,0,0,0,.2-.46l-.54-1.15a.38.38,0,0,0-.35-.21Z" transform="translate(0 -1.64)"/><path class="cls-11" d="M48.84,9.56a.31.31,0,1,0,0,.61h2.05l.45,1a.34.34,0,0,0,.43.16.3.3,0,0,0,.17-.4l-.54-1.15a.33.33,0,0,0-.3-.19Z" transform="translate(0 -1.64)"/><path class="cls-12" d="M48.83,9.59a.26.26,0,1,0,0,.52h2.08l.47,1a.29.29,0,0,0,.37.14.25.25,0,0,0,.15-.34l-.54-1.15a.28.28,0,0,0-.26-.16Z" transform="translate(0 -1.64)"/><path class="cls-13" d="M48.82,9.62a.22.22,0,0,0-.23.22.22.22,0,0,0,.23.21h2.12l.48,1a.24.24,0,0,0,.3.11.21.21,0,0,0,.12-.28L51.3,9.76a.23.23,0,0,0-.21-.13Z" transform="translate(0 -1.64)"/><path class="cls-14" d="M48.81,9.66a.18.18,0,0,0-.18.17.17.17,0,0,0,.18.17H51L51.45,11a.19.19,0,0,0,.24.09.17.17,0,0,0,.1-.22l-.54-1.15a.18.18,0,0,0-.17-.1Z" transform="translate(0 -1.64)"/><path class="cls-15" d="M7.82,9H48.73V40.23l-.64,1.16-1.21,0,0,0L7.82,11.09H7.36V9Z" transform="translate(0 -1.64)"/><path class="cls-16" d="M48,10.16a.68.68,0,1,0,0,1.35h1.79l.35.75a.76.76,0,0,0,1,.35.66.66,0,0,0,.38-.89L51,10.57a.73.73,0,0,0-.66-.41Z" transform="translate(0 -1.64)"/><path class="cls-17" d="M48,10.19a.63.63,0,1,0,0,1.26h1.82l.36.77a.7.7,0,0,0,.89.33.61.61,0,0,0,.35-.83l-.54-1.15a.68.68,0,0,0-.62-.38Z" transform="translate(0 -1.64)"/><path class="cls-18" d="M48,10.22a.59.59,0,1,0,0,1.17h1.86l.38.8a.65.65,0,0,0,.83.3.57.57,0,0,0,.32-.77l-.54-1.15a.63.63,0,0,0-.57-.35Z" transform="translate(0 -1.64)"/><path class="cls-19" d="M48,10.25a.54.54,0,1,0,0,1.08h1.89l.39.83a.6.6,0,0,0,.76.28.52.52,0,0,0,.3-.71l-.54-1.15a.58.58,0,0,0-.53-.33Z" transform="translate(0 -1.64)"/><path class="cls-20" d="M48,10.29a.49.49,0,1,0,0,1h1.92l.4.86a.55.55,0,0,0,.7.26.48.48,0,0,0,.27-.65l-.54-1.15a.53.53,0,0,0-.48-.3Z" transform="translate(0 -1.64)"/><path class="cls-21" d="M48,10.32a.45.45,0,1,0,0,.89h2l.41.88a.5.5,0,0,0,.63.23.43.43,0,0,0,.25-.59l-.54-1.15a.48.48,0,0,0-.44-.27Z" transform="translate(0 -1.64)"/><path class="cls-22" d="M48,10.35a.4.4,0,1,0,0,.8h2l.43.91a.45.45,0,0,0,.57.21.39.39,0,0,0,.22-.53l-.54-1.15a.43.43,0,0,0-.39-.24Z" transform="translate(0 -1.64)"/><path class="cls-23" d="M48,10.38a.36.36,0,1,0,0,.71h2l.44.94a.39.39,0,0,0,.5.19.34.34,0,0,0,.2-.47l-.54-1.15a.38.38,0,0,0-.35-.22Z" transform="translate(0 -1.64)"/><path class="cls-24" d="M48,10.41A.31.31,0,1,0,48,11H50l.45,1a.34.34,0,0,0,.44.16.3.3,0,0,0,.17-.41l-.54-1.15a.33.33,0,0,0-.3-.19Z" transform="translate(0 -1.64)"/><path class="cls-25" d="M47.94,10.45a.26.26,0,1,0,0,.52H50l.47,1a.29.29,0,0,0,.37.14.26.26,0,0,0,.14-.35l-.54-1.15a.28.28,0,0,0-.26-.16Z" transform="translate(0 -1.64)"/><path class="cls-26" d="M47.93,10.48a.22.22,0,1,0,0,.43H50l.48,1a.24.24,0,0,0,.31.12.21.21,0,0,0,.12-.28l-.54-1.15a.24.24,0,0,0-.21-.13Z" transform="translate(0 -1.64)"/><path class="cls-27" d="M47.92,10.51a.17.17,0,1,0,0,.34h2.15l.49,1a.19.19,0,0,0,.24.09.17.17,0,0,0,.09-.22l-.54-1.15a.19.19,0,0,0-.17-.11Z" transform="translate(0 -1.64)"/><path class="cls-16" d="M6.88,10.16a.68.68,0,1,1,0,1.35H5.08l-.35.75a.75.75,0,0,1-1,.35.65.65,0,0,1-.38-.89l.54-1.15a.73.73,0,0,1,.67-.41Z" transform="translate(0 -1.64)"/><path class="cls-17" d="M6.89,10.19a.63.63,0,1,1,0,1.26H5.06l-.36.77a.7.7,0,0,1-.89.33.61.61,0,0,1-.35-.83L4,10.57a.68.68,0,0,1,.62-.38Z" transform="translate(0 -1.64)"/><path class="cls-18" d="M6.9,10.22a.59.59,0,1,1,0,1.17H5l-.37.8a.65.65,0,0,1-.83.3.57.57,0,0,1-.33-.77l.54-1.15a.63.63,0,0,1,.58-.35Z" transform="translate(0 -1.64)"/><path class="cls-19" d="M6.91,10.25a.54.54,0,1,1,0,1.08H5l-.39.83a.6.6,0,0,1-.76.28.52.52,0,0,1-.3-.71l.54-1.15a.58.58,0,0,1,.53-.33Z" transform="translate(0 -1.64)"/><path class="cls-20" d="M6.92,10.29a.49.49,0,1,1,0,1H5l-.4.86a.55.55,0,0,1-.7.26.48.48,0,0,1-.28-.65l.54-1.15a.53.53,0,0,1,.49-.3Z" transform="translate(0 -1.64)"/><path class="cls-21" d="M6.93,10.32a.45.45,0,1,1,0,.89H5l-.41.88a.5.5,0,0,1-.63.23.43.43,0,0,1-.25-.59l.54-1.15a.48.48,0,0,1,.44-.27Z" transform="translate(0 -1.64)"/><path class="cls-22" d="M6.94,10.35a.4.4,0,1,1,0,.8H5l-.43.91a.45.45,0,0,1-.57.21.39.39,0,0,1-.22-.53l.54-1.15a.43.43,0,0,1,.4-.24Z" transform="translate(0 -1.64)"/><path class="cls-23" d="M6.95,10.38a.36.36,0,1,1,0,.71h-2L4.49,12a.4.4,0,0,1-.5.19.35.35,0,0,1-.2-.47l.54-1.15a.38.38,0,0,1,.35-.22Z" transform="translate(0 -1.64)"/><path class="cls-24" d="M7,10.41A.31.31,0,1,1,7,11H4.91l-.45,1a.34.34,0,0,1-.44.16.3.3,0,0,1-.17-.41l.54-1.15a.33.33,0,0,1,.3-.19Z" transform="translate(0 -1.64)"/><path class="cls-25" d="M7,10.45A.26.26,0,1,1,7,11H4.88l-.47,1A.29.29,0,0,1,4,12.1a.26.26,0,0,1-.15-.35l.54-1.15a.28.28,0,0,1,.26-.16Z" transform="translate(0 -1.64)"/><path class="cls-26" d="M7,10.48a.22.22,0,1,1,0,.43H4.86l-.48,1a.24.24,0,0,1-.31.12A.21.21,0,0,1,4,11.76l.54-1.15a.23.23,0,0,1,.21-.13Z" transform="translate(0 -1.64)"/><path class="cls-27" d="M7,10.51a.17.17,0,1,1,0,.34H4.84l-.49,1a.19.19,0,0,1-.24.09.17.17,0,0,1-.1-.22l.54-1.15a.18.18,0,0,1,.17-.11Z" transform="translate(0 -1.64)"/><rect class="cls-28" x="9.7" y="7.07" width="37.27" height="1.18"/><polygon class="cls-29" points="48.09 39.76 48.73 38.6 48.73 9.87 48.09 9.87 48.09 39.76"/><path class="cls-30" d="M6.72,9.9v31.5H48.09V9.9H6.72Zm40.46.91V40.49H7.63V10.81Z" transform="translate(0 -1.64)"/><rect class="cls-31" x="7.18" y="8.71" width="40.46" height="30.59"/><rect class="cls-32" x="6.73" y="10.39" width="40.54" height="0.44"/><rect class="cls-33" x="7.26" y="8.75" width="40.59" height="1.35"/><path class="cls-34" d="M47.29,12.81H7.38v17.7s-.75-11.58,1.39-16.2C8.78,14.31,8.57,12.81,47.29,12.81Z" transform="translate(0 -1.64)"/><path class="cls-35" d="M7.28,40.7h39.9V13.45s-3,17.34-4.3,22.49C42.88,35.94,42.26,39.23,7.28,40.7Z" transform="translate(0 -1.64)"/><rect class="cls-36" x="5.49" y="7.76" width="3.61" height="0.45"/><g class="cls-37"><path class="cls-38" d="M45.13,7.43H33.88L31.13,3.34a2.72,2.72,0,0,0-2.22-.89H17.54c-1.66,0-2.13.24-2.84.95a22.83,22.83,0,0,0-2.13,4H8.81V33.7h36.4Z" transform="translate(0 -1.64)"/><path class="cls-38" d="M46.3,7.23H35.05L32.3,3.15a2.72,2.72,0,0,0-2.23-.89H18.7c-1.66,0-2.13.24-2.84.95a22.92,22.92,0,0,0-2.13,4H10V33.51H46.38Z" transform="translate(0 -1.64)"/><path class="cls-39" d="M45.22,7.43H34L31.22,3.34A2.73,2.73,0,0,0,29,2.45H17.62c-1.66,0-2.13.24-2.84.95a22.78,22.78,0,0,0-2.13,4H8.9V33.7H45.3Z" transform="translate(0 -1.64)"/><path class="cls-40" d="M45,7.7H9.13V25.06S8.39,13.7,10.5,9.17C10.5,9.17,7.05,7.7,45,7.7Z" transform="translate(0 -1.64)"/><path class="cls-41" d="M9.5,33.25H44.72V9s-4.48,20-4.22,19.54C40.56,28.47,41.08,31.92,9.5,33.25Z" transform="translate(0 -1.64)"/><path class="cls-42" d="M13.09,7.33A22.27,22.27,0,0,1,14.64,4s.77-1.2,3.17-1.2H28.6s-10,.09-12.51,1C16.09,3.82,14.72,4.42,13.09,7.33Z" transform="translate(0 -1.64)"/></g><g id="layer1"><path id="path3211" class="cls-43" d="M25.07,45.72H.81L6.88,33.58,13,21.46,19,33.59Z" transform="translate(0 -1.64)"/><path id="path3234" class="cls-44" d="M14,26c.14,4.46.2,8.69.22,13.06L12,39.87c0-4.71-.23-8.44-.26-12.79Z" transform="translate(0 -1.64)"/><path id="path3236" class="cls-45" d="M14,40.85c0,.53,0,1.76,0,2.22l-2.25.67c.09-1.18.19-1.06.21-2.3Z" transform="translate(0 -1.64)"/></g></g></g></g></g></svg>