<?xml version="1.0" encoding="iso-8859-1"?>
<!-- Generator: Adobe Illustrator 19.0.0, SVG Export Plug-In . SVG Version: 6.00 Build 0)  -->
<svg version="1.1" id="Layer_1" xmlns="http://www.w3.org/2000/svg" xmlns:xlink="http://www.w3.org/1999/xlink" x="0px" y="0px"
	 viewBox="0 0 512 512" style="enable-background:new 0 0 512 512;" xml:space="preserve">
<path style="fill:#D7D7D7;" d="M409.55,70.347C374.452,24.326,321.356,0,256,0S137.548,24.326,102.45,70.347
	c-30.208,39.611-46.175,93.382-46.175,155.5c0,67.981,19.424,137.928,53.291,191.905C147.7,478.529,199.706,512,256,512
	s108.3-33.471,146.433-94.248c33.868-53.977,53.291-123.923,53.291-191.905C455.724,163.729,439.758,109.958,409.55,70.347z"/>
<path style="fill:#B0B0B0;" d="M409.55,70.347C374.452,24.326,321.356,0,256,0v512c56.294,0,108.3-33.471,146.433-94.248
	c33.868-53.977,53.291-123.923,53.291-191.905C455.724,163.729,439.758,109.958,409.55,70.347z"/>
<path style="fill:#444444;" d="M343.335,301.739c-29.668,0-53.806-24.137-53.806-53.807c0-29.668,24.137-53.806,53.806-53.806
	c29.668,0,53.807,24.137,53.807,53.806C397.142,277.602,373.003,301.739,343.335,301.739z"/>
<circle style="fill:#211915;" cx="343.329" cy="247.93" r="20.901"/>
<rect x="205.523" y="381.507" style="fill:#8B8B8B;" width="100.942" height="33.391"/>
<g>
	<rect x="256" y="381.507" style="fill:#6F6F6F;" width="50.477" height="33.391"/>
	<path style="fill:#6F6F6F;" d="M442.894,322.902L324.06,344.336l-22.908,160.221c12.518-4.21,24.651-10.18,36.279-17.825
		l16.272-113.812l77.664-14.009C435.782,347.215,439.634,335.174,442.894,322.902z"/>
	<path style="fill:#6F6F6F;" d="M391.784,50.356c-10.101-9.748-21.261-18.125-33.391-25.095v127.722h33.391V50.356z"/>
</g>
<path style="fill:#8B8B8B;" d="M114.858,247.933c0-29.668,24.139-53.806,53.807-53.806s53.806,24.137,53.806,53.806
	c0,29.669-24.137,53.807-53.806,53.807S114.858,277.602,114.858,247.933z"/>
<circle style="fill:#444444;" cx="168.659" cy="247.93" r="20.901"/>
<g>
	<path style="fill:#8B8B8B;" d="M69.106,322.902l118.834,21.434l22.908,160.221c-12.518-4.21-24.651-10.18-36.279-17.825
		L158.297,372.92l-77.664-14.009C76.218,347.215,72.366,335.174,69.106,322.902z"/>
	<path style="fill:#8B8B8B;" d="M120.216,50.356c10.101-9.748,21.261-18.125,33.391-25.095v127.722h-33.391V50.356z"/>
	<path style="fill:#8B8B8B;" d="M289.776,2.323v119.348L256,140.79l-33.776-19.119V2.323c-11.629,1.645-22.774,4.157-33.391,7.529
		v131.287L256,179.16l67.168-38.02V9.853C312.55,6.48,301.405,3.968,289.776,2.323z"/>
</g>
<path style="fill:#6F6F6F;" d="M256,179.16l67.168-38.02V9.853c-10.617-3.371-21.762-5.885-33.391-7.529v119.348L256,140.79V179.16z
	"/>
<g>
</g>
<g>
</g>
<g>
</g>
<g>
</g>
<g>
</g>
<g>
</g>
<g>
</g>
<g>
</g>
<g>
</g>
<g>
</g>
<g>
</g>
<g>
</g>
<g>
</g>
<g>
</g>
<g>
</g>
</svg>
