<svg version="1.1" xmlns="http://www.w3.org/2000/svg" xmlns:xlink="http://www.w3.org/1999/xlink" width="732" height="507"><defs/><g><g transform="translate(-190,-158) scale(1,1)"><path fill="#ffffff" stroke="none" d="M 215.82072727272728 393.68 C 215.82072727272728 388.886167936 219.70656959767274 385 224.5 385 C 229.29343040232726 385 233.17927272727272 388.886167936 233.17927272727272 393.68 C 233.17927272727272 398.473832064 229.29343040232726 402.36 224.5 402.36 C 219.70656959767274 402.36 215.82072727272728 398.473832064 215.82072727272728 393.68 Z"/></g><g transform="translate(-190,-158) scale(1,1)"><path fill="none" stroke="#000000" d="M 215.82072727272728 393.68 C 215.82072727272728 388.886167936 219.70656959767274 385 224.5 385 C 229.29343040232726 385 233.17927272727272 388.886167936 233.17927272727272 393.68 C 233.17927272727272 398.473832064 229.29343040232726 402.36 224.5 402.36 C 219.70656959767274 402.36 215.82072727272728 398.473832064 215.82072727272728 393.68 Z" stroke-miterlimit="10"/></g><g transform="translate(-190,-158) scale(1,1)"><path fill="none" stroke="#000000" d="M 224.5 402.36 L 224.5 419.64" stroke-miterlimit="10"/></g><g transform="translate(-190,-158) scale(1,1)"><path fill="none" stroke="#000000" d="M 215.31018181818183 408.84 L 233.68981818181817 408.84" stroke-miterlimit="10"/></g><g transform="translate(-190,-158) scale(1,1)"><path fill="none" stroke="#000000" d="M 224.5 419.64 L 211.73636363636365 437" stroke-miterlimit="10"/></g><g transform="translate(-190,-158) scale(1,1)"><path fill="none" stroke="#000000" d="M 224.5 419.64 L 237.26363636363635 437" stroke-miterlimit="10"/></g><g transform="translate(-190,-158) scale(1,1)"><g><path fill="none" stroke="none"/><text fill="#000000" stroke="none" font-family="Arial" font-size="13px" font-style="normal" font-weight="bold" text-decoration="none" x="211.5" y="457.5">用户</text></g></g><g transform="translate(-190,-158) scale(1,1)"><path fill="none" stroke="#000000" d="M 250 422 L 783 391" stroke-miterlimit="10"/></g><g transform="translate(-190,-158) scale(1,1)"><path fill="none" stroke="#000000" d="M 250 416 L 767 269" stroke-miterlimit="10"/></g><g transform="translate(-190,-158) scale(1,1)"><path fill="none" stroke="#000000" d="M 250 407 L 552 224" stroke-miterlimit="10"/></g><g transform="translate(-190,-158) scale(1,1)"><path fill="#C0C0C0" stroke="none" d="M 791 394.5 C 791 379.312168 819.6537728 367 855 367 C 890.3462272 367 919 379.312168 919 394.5 C 919 409.687832 890.3462272 422 855 422 C 819.6537728 422 791 409.687832 791 394.5 Z" opacity="0.2"/></g><g transform="translate(-190,-158) scale(1,1)"><path fill="#ffffff" stroke="none" d="M 784 387.5 C 784 372.312168 812.6537728 360 848 360 C 883.3462272 360 912 372.312168 912 387.5 C 912 402.687832 883.3462272 415 848 415 C 812.6537728 415 784 402.687832 784 387.5 Z"/></g><g transform="translate(-190,-158) scale(1,1)"><path fill="none" stroke="#000000" d="M 784 387.5 C 784 372.312168 812.6537728 360 848 360 C 883.3462272 360 912 372.312168 912 387.5 C 912 402.687832 883.3462272 415 848 415 C 812.6537728 415 784 402.687832 784 387.5 Z" stroke-miterlimit="10"/></g><g transform="translate(-190,-158) scale(1,1)"><g><path fill="none" stroke="none"/><text fill="#000000" stroke="none" font-family="Arial" font-size="13px" font-style="normal" font-weight="bold" text-decoration="none" x="811.5" y="387">创建Session</text></g></g><g transform="translate(-190,-158) scale(1,1)"><g><path fill="none" stroke="none"/><text fill="#000000" stroke="none" font-family="Arial" font-size="13px" font-style="normal" font-weight="normal" text-decoration="none" x="816" y="402">(from 用户)</text></g></g><g transform="translate(-190,-158) scale(1,1)"><path fill="#C0C0C0" stroke="none" d="M 775 258.5 C 775 243.31216799999999 803.6537728 231 839 231 C 874.3462272 231 903 243.31216799999999 903 258.5 C 903 273.687832 874.3462272 286 839 286 C 803.6537728 286 775 273.687832 775 258.5 Z" opacity="0.2"/></g><g transform="translate(-190,-158) scale(1,1)"><path fill="#ffffff" stroke="none" d="M 768 251.5 C 768 236.31216799999999 796.6537728 224 832 224 C 867.3462272 224 896 236.31216799999999 896 251.5 C 896 266.687832 867.3462272 279 832 279 C 796.6537728 279 768 266.687832 768 251.5 Z"/></g><g transform="translate(-190,-158) scale(1,1)"><path fill="none" stroke="#000000" d="M 768 251.5 C 768 236.31216799999999 796.6537728 224 832 224 C 867.3462272 224 896 236.31216799999999 896 251.5 C 896 266.687832 867.3462272 279 832 279 C 796.6537728 279 768 266.687832 768 251.5 Z" stroke-miterlimit="10"/></g><g transform="translate(-190,-158) scale(1,1)"><g><path fill="none" stroke="none"/><text fill="#000000" stroke="none" font-family="Arial" font-size="13px" font-style="normal" font-weight="bold" text-decoration="none" x="795.5" y="251">编辑Session</text></g></g><g transform="translate(-190,-158) scale(1,1)"><g><path fill="none" stroke="none"/><text fill="#000000" stroke="none" font-family="Arial" font-size="13px" font-style="normal" font-weight="normal" text-decoration="none" x="800" y="266">(from 用户)</text></g></g><g transform="translate(-190,-158) scale(1,1)"><path fill="#C0C0C0" stroke="none" d="M 543 202.5 C 543 187.31216799999999 571.6537728 175 607 175 C 642.3462272 175 671 187.31216799999999 671 202.5 C 671 217.68783200000001 642.3462272 230 607 230 C 571.6537728 230 543 217.68783200000001 543 202.5 Z" opacity="0.2"/></g><g transform="translate(-190,-158) scale(1,1)"><path fill="#ffffff" stroke="none" d="M 536 195.5 C 536 180.31216799999999 564.6537728 168 600 168 C 635.3462272 168 664 180.31216799999999 664 195.5 C 664 210.68783200000001 635.3462272 223 600 223 C 564.6537728 223 536 210.68783200000001 536 195.5 Z"/></g><g transform="translate(-190,-158) scale(1,1)"><path fill="none" stroke="#000000" d="M 536 195.5 C 536 180.31216799999999 564.6537728 168 600 168 C 635.3462272 168 664 180.31216799999999 664 195.5 C 664 210.68783200000001 635.3462272 223 600 223 C 564.6537728 223 536 210.68783200000001 536 195.5 Z" stroke-miterlimit="10"/></g><g transform="translate(-190,-158) scale(1,1)"><g><path fill="none" stroke="none"/><text fill="#000000" stroke="none" font-family="Arial" font-size="13px" font-style="normal" font-weight="bold" text-decoration="none" x="563.5" y="195">删除Session</text></g></g><g transform="translate(-190,-158) scale(1,1)"><g><path fill="none" stroke="none"/><text fill="#000000" stroke="none" font-family="Arial" font-size="13px" font-style="normal" font-weight="normal" text-decoration="none" x="568" y="210">(from 用户)</text></g></g><g transform="translate(-190,-158) scale(1,1)"><path fill="#C0C0C0" stroke="none" d="M 815 490.5 C 815 475.312168 838.0573328 463 866.5 463 C 894.9426672 463 918 475.312168 918 490.5 C 918 505.687832 894.9426672 518 866.5 518 C 838.0573328 518 815 505.687832 815 490.5 Z" opacity="0.2"/></g><g transform="translate(-190,-158) scale(1,1)"><path fill="#ffffff" stroke="none" d="M 808 483.5 C 808 468.312168 831.0573328 456 859.5 456 C 887.9426672 456 911 468.312168 911 483.5 C 911 498.687832 887.9426672 511 859.5 511 C 831.0573328 511 808 498.687832 808 483.5 Z"/></g><g transform="translate(-190,-158) scale(1,1)"><path fill="none" stroke="#000000" d="M 808 483.5 C 808 468.312168 831.0573328 456 859.5 456 C 887.9426672 456 911 468.312168 911 483.5 C 911 498.687832 887.9426672 511 859.5 511 C 831.0573328 511 808 498.687832 808 483.5 Z" stroke-miterlimit="10"/></g><g transform="translate(-190,-158) scale(1,1)"><g><path fill="none" stroke="none"/><text fill="#000000" stroke="none" font-family="Arial" font-size="13px" font-style="normal" font-weight="bold" text-decoration="none" x="833.5" y="483">创建隧道</text></g></g><g transform="translate(-190,-158) scale(1,1)"><g><path fill="none" stroke="none"/><text fill="#000000" stroke="none" font-family="Arial" font-size="13px" font-style="normal" font-weight="normal" text-decoration="none" x="827.5" y="498">(from 用户)</text></g></g><g transform="translate(-190,-158) scale(1,1)"><path fill="#C0C0C0" stroke="none" d="M 703 578.5 C 703 563.312168 726.0573328 551 754.5 551 C 782.9426672 551 806 563.312168 806 578.5 C 806 593.687832 782.9426672 606 754.5 606 C 726.0573328 606 703 593.687832 703 578.5 Z" opacity="0.2"/></g><g transform="translate(-190,-158) scale(1,1)"><path fill="#ffffff" stroke="none" d="M 696 571.5 C 696 556.312168 719.0573328 544 747.5 544 C 775.9426672 544 799 556.312168 799 571.5 C 799 586.687832 775.9426672 599 747.5 599 C 719.0573328 599 696 586.687832 696 571.5 Z"/></g><g transform="translate(-190,-158) scale(1,1)"><path fill="none" stroke="#000000" d="M 696 571.5 C 696 556.312168 719.0573328 544 747.5 544 C 775.9426672 544 799 556.312168 799 571.5 C 799 586.687832 775.9426672 599 747.5 599 C 719.0573328 599 696 586.687832 696 571.5 Z" stroke-miterlimit="10"/></g><g transform="translate(-190,-158) scale(1,1)"><g><path fill="none" stroke="none"/><text fill="#000000" stroke="none" font-family="Arial" font-size="13px" font-style="normal" font-weight="bold" text-decoration="none" x="721.5" y="571">编辑隧道</text></g></g><g transform="translate(-190,-158) scale(1,1)"><g><path fill="none" stroke="none"/><text fill="#000000" stroke="none" font-family="Arial" font-size="13px" font-style="normal" font-weight="normal" text-decoration="none" x="715.5" y="586">(from 用户)</text></g></g><g transform="translate(-190,-158) scale(1,1)"><path fill="#C0C0C0" stroke="none" d="M 559 634.5 C 559 619.312168 582.0573328 607 610.5 607 C 638.9426672 607 662 619.312168 662 634.5 C 662 649.687832 638.9426672 662 610.5 662 C 582.0573328 662 559 649.687832 559 634.5 Z" opacity="0.2"/></g><g transform="translate(-190,-158) scale(1,1)"><path fill="#ffffff" stroke="none" d="M 552 627.5 C 552 612.312168 575.0573328 600 603.5 600 C 631.9426672 600 655 612.312168 655 627.5 C 655 642.687832 631.9426672 655 603.5 655 C 575.0573328 655 552 642.687832 552 627.5 Z"/></g><g transform="translate(-190,-158) scale(1,1)"><path fill="none" stroke="#000000" d="M 552 627.5 C 552 612.312168 575.0573328 600 603.5 600 C 631.9426672 600 655 612.312168 655 627.5 C 655 642.687832 631.9426672 655 603.5 655 C 575.0573328 655 552 642.687832 552 627.5 Z" stroke-miterlimit="10"/></g><g transform="translate(-190,-158) scale(1,1)"><g><path fill="none" stroke="none"/><text fill="#000000" stroke="none" font-family="Arial" font-size="13px" font-style="normal" font-weight="bold" text-decoration="none" x="577.5" y="627">删除隧道</text></g></g><g transform="translate(-190,-158) scale(1,1)"><g><path fill="none" stroke="none"/><text fill="#000000" stroke="none" font-family="Arial" font-size="13px" font-style="normal" font-weight="normal" text-decoration="none" x="571.5" y="642">(from 用户)</text></g></g><g transform="translate(-190,-158) scale(1,1)"><path fill="none" stroke="#000000" d="M 250 425 L 807 478" stroke-miterlimit="10"/></g><g transform="translate(-190,-158) scale(1,1)"><path fill="none" stroke="#000000" d="M 250 430 L 695 556" stroke-miterlimit="10"/></g><g transform="translate(-190,-158) scale(1,1)"><path fill="none" stroke="#000000" d="M 250 437 L 551 599" stroke-miterlimit="10"/></g><g transform="translate(-190,-158) scale(1,1)"><path fill="none" stroke="#000000" d="M 856 455 L 851 416" stroke-miterlimit="10" stroke-dasharray="3"/></g><g transform="translate(-190,-158) scale(1,1)"><path fill="none" stroke="#000000" d="M 856.4676730762133 425.54487040936925 L 851 416 L 848.1169861174897 426.6154713015133" stroke-miterlimit="10"/></g><g transform="translate(-190,-158) scale(1,1)"><path fill="none" stroke="#000000" d="M 600 224 L 603 599" stroke-miterlimit="10" stroke-dasharray="3"/></g><g transform="translate(-190,-158) scale(1,1)"><path fill="none" stroke="#000000" d="M 598.7093181447457 588.8713253968256 L 603 599 L 607.1280842605721 588.803975267899" stroke-miterlimit="10"/></g><g transform="translate(-190,-158) scale(1,1)"><g><path fill="none" stroke="none"/><text fill="#000000" stroke="none" font-family="Arial" font-size="13px" font-style="normal" font-weight="normal" text-decoration="none" x="604.5" y="359.5">«include»</text></g></g><g transform="translate(-190,-158) scale(1,1)"><path fill="#C0C0C0" stroke="none" d="M 367 578.5 C 367 563.312168 390.0573328 551 418.5 551 C 446.9426672 551 470 563.312168 470 578.5 C 470 593.687832 446.9426672 606 418.5 606 C 390.0573328 606 367 593.687832 367 578.5 Z" opacity="0.2"/></g><g transform="translate(-190,-158) scale(1,1)"><path fill="#ffffff" stroke="none" d="M 360 571.5 C 360 556.312168 383.0573328 544 411.5 544 C 439.9426672 544 463 556.312168 463 571.5 C 463 586.687832 439.9426672 599 411.5 599 C 383.0573328 599 360 586.687832 360 571.5 Z"/></g><g transform="translate(-190,-158) scale(1,1)"><path fill="none" stroke="#000000" d="M 360 571.5 C 360 556.312168 383.0573328 544 411.5 544 C 439.9426672 544 463 556.312168 463 571.5 C 463 586.687832 439.9426672 599 411.5 599 C 383.0573328 599 360 586.687832 360 571.5 Z" stroke-miterlimit="10"/></g><g transform="translate(-190,-158) scale(1,1)"><g><path fill="none" stroke="none"/><text fill="#000000" stroke="none" font-family="Arial" font-size="13px" font-style="normal" font-weight="bold" text-decoration="none" x="385.5" y="571">连接隧道</text></g></g><g transform="translate(-190,-158) scale(1,1)"><g><path fill="none" stroke="none"/><text fill="#000000" stroke="none" font-family="Arial" font-size="13px" font-style="normal" font-weight="normal" text-decoration="none" x="379.5" y="586">(from 用户)</text></g></g><g transform="translate(-190,-158) scale(1,1)"><path fill="#C0C0C0" stroke="none" d="M 295 634.5 C 295 619.312168 318.0573328 607 346.5 607 C 374.9426672 607 398 619.312168 398 634.5 C 398 649.687832 374.9426672 662 346.5 662 C 318.0573328 662 295 649.687832 295 634.5 Z" opacity="0.2"/></g><g transform="translate(-190,-158) scale(1,1)"><path fill="#ffffff" stroke="none" d="M 288 627.5 C 288 612.312168 311.0573328 600 339.5 600 C 367.9426672 600 391 612.312168 391 627.5 C 391 642.687832 367.9426672 655 339.5 655 C 311.0573328 655 288 642.687832 288 627.5 Z"/></g><g transform="translate(-190,-158) scale(1,1)"><path fill="none" stroke="#000000" d="M 288 627.5 C 288 612.312168 311.0573328 600 339.5 600 C 367.9426672 600 391 612.312168 391 627.5 C 391 642.687832 367.9426672 655 339.5 655 C 311.0573328 655 288 642.687832 288 627.5 Z" stroke-miterlimit="10"/></g><g transform="translate(-190,-158) scale(1,1)"><g><path fill="none" stroke="none"/><text fill="#000000" stroke="none" font-family="Arial" font-size="13px" font-style="normal" font-weight="bold" text-decoration="none" x="313.5" y="627">断开隧道</text></g></g><g transform="translate(-190,-158) scale(1,1)"><g><path fill="none" stroke="none"/><text fill="#000000" stroke="none" font-family="Arial" font-size="13px" font-style="normal" font-weight="normal" text-decoration="none" x="307.5" y="642">(from 用户)</text></g></g><g transform="translate(-190,-158) scale(1,1)"><path fill="none" stroke="#000000" d="M 250 444 L 376 543" stroke-miterlimit="10"/></g><g transform="translate(-190,-158) scale(1,1)"><path fill="none" stroke="#000000" d="M 247 464 L 323 599" stroke-miterlimit="10"/></g><g transform="translate(-190,-158) scale(1,1)"><path fill="#C0C0C0" stroke="none" d="M 359 258.5 C 359 243.31216799999999 387.6537728 231 423 231 C 458.3462272 231 487 243.31216799999999 487 258.5 C 487 273.687832 458.3462272 286 423 286 C 387.6537728 286 359 273.687832 359 258.5 Z" opacity="0.2"/></g><g transform="translate(-190,-158) scale(1,1)"><path fill="#ffffff" stroke="none" d="M 352 251.5 C 352 236.31216799999999 380.6537728 224 416 224 C 451.3462272 224 480 236.31216799999999 480 251.5 C 480 266.687832 451.3462272 279 416 279 C 380.6537728 279 352 266.687832 352 251.5 Z"/></g><g transform="translate(-190,-158) scale(1,1)"><path fill="none" stroke="#000000" d="M 352 251.5 C 352 236.31216799999999 380.6537728 224 416 224 C 451.3462272 224 480 236.31216799999999 480 251.5 C 480 266.687832 451.3462272 279 416 279 C 380.6537728 279 352 266.687832 352 251.5 Z" stroke-miterlimit="10"/></g><g transform="translate(-190,-158) scale(1,1)"><g><path fill="none" stroke="none"/><text fill="#000000" stroke="none" font-family="Arial" font-size="13px" font-style="normal" font-weight="bold" text-decoration="none" x="379.5" y="251">连接Session</text></g></g><g transform="translate(-190,-158) scale(1,1)"><g><path fill="none" stroke="none"/><text fill="#000000" stroke="none" font-family="Arial" font-size="13px" font-style="normal" font-weight="normal" text-decoration="none" x="384" y="266">(from 用户)</text></g></g><g transform="translate(-190,-158) scale(1,1)"><path fill="#C0C0C0" stroke="none" d="M 279 202.5 C 279 187.31216799999999 307.6537728 175 343 175 C 378.3462272 175 407 187.31216799999999 407 202.5 C 407 217.68783200000001 378.3462272 230 343 230 C 307.6537728 230 279 217.68783200000001 279 202.5 Z" opacity="0.2"/></g><g transform="translate(-190,-158) scale(1,1)"><path fill="#ffffff" stroke="none" d="M 272 195.5 C 272 180.31216799999999 300.6537728 168 336 168 C 371.3462272 168 400 180.31216799999999 400 195.5 C 400 210.68783200000001 371.3462272 223 336 223 C 300.6537728 223 272 210.68783200000001 272 195.5 Z"/></g><g transform="translate(-190,-158) scale(1,1)"><path fill="none" stroke="#000000" d="M 272 195.5 C 272 180.31216799999999 300.6537728 168 336 168 C 371.3462272 168 400 180.31216799999999 400 195.5 C 400 210.68783200000001 371.3462272 223 336 223 C 300.6537728 223 272 210.68783200000001 272 195.5 Z" stroke-miterlimit="10"/></g><g transform="translate(-190,-158) scale(1,1)"><g><path fill="none" stroke="none"/><text fill="#000000" stroke="none" font-family="Arial" font-size="13px" font-style="normal" font-weight="bold" text-decoration="none" x="299.5" y="195">断开Session</text></g></g><g transform="translate(-190,-158) scale(1,1)"><g><path fill="none" stroke="none"/><text fill="#000000" stroke="none" font-family="Arial" font-size="13px" font-style="normal" font-weight="normal" text-decoration="none" x="304" y="210">(from 用户)</text></g></g><g transform="translate(-190,-158) scale(1,1)"><path fill="none" stroke="#000000" d="M 250 400 L 384 280" stroke-miterlimit="10"/></g><g transform="translate(-190,-158) scale(1,1)"><path fill="none" stroke="#000000" d="M 244 383 L 322 224" stroke-miterlimit="10"/></g><g transform="translate(-190,-158) scale(1,1)"><path fill="none" stroke="#000000" d="M 411 543 L 416 280" stroke-miterlimit="10" stroke-dasharray="3"/></g><g transform="translate(-190,-158) scale(1,1)"><path fill="none" stroke="#000000" d="M 420.0155853915107 290.2408531853301 L 416 280 L 411.5980709282881 290.08082439325364" stroke-miterlimit="10"/></g><g transform="translate(-190,-158) scale(1,1)"><g><path fill="none" stroke="none"/><text fill="#000000" stroke="none" font-family="Arial" font-size="13px" font-style="normal" font-weight="normal" text-decoration="none" x="409.5" y="392.5">«include»</text></g></g><g transform="translate(-190,-158) scale(1,1)"><path fill="none" stroke="#000000" d="M 767 235 L 665 211" stroke-miterlimit="10" stroke-dasharray="3"/></g><g transform="translate(-190,-158) scale(1,1)"><path fill="none" stroke="#000000" d="M 675.8566673247471 209.2300354241486 L 665 211 L 673.9283770404596 217.4252691323706" stroke-miterlimit="10"/></g><g transform="translate(-190,-158) scale(1,1)"><g><path fill="none" stroke="none"/><text fill="#000000" stroke="none" font-family="Arial" font-size="13px" font-style="normal" font-weight="normal" text-decoration="none" x="721.5" y="218.5">«include»</text></g></g><g transform="translate(-190,-158) scale(1,1)"><path fill="none" stroke="#000000" d="M 339 599 L 336 224" stroke-miterlimit="10" stroke-dasharray="3"/></g><g transform="translate(-190,-158) scale(1,1)"><path fill="none" stroke="#000000" d="M 340.2906818552544 234.12867460317443 L 336 224 L 331.87191573942783 234.19602473210105" stroke-miterlimit="10"/></g><g transform="translate(-190,-158) scale(1,1)"><g><path fill="none" stroke="none"/><text fill="#000000" stroke="none" font-family="Arial" font-size="13px" font-style="normal" font-weight="normal" text-decoration="none" x="308.5" y="407.5">«include»</text></g></g><g transform="translate(-190,-158) scale(1,1)"><path fill="none" stroke="#000000" d="M 535 195 L 401 195" stroke-miterlimit="10" stroke-dasharray="3"/></g><g transform="translate(-190,-158) scale(1,1)"><path fill="none" stroke="#000000" d="M 411.16267485762415 190.790482243984 L 401 195 L 411.16267485762415 199.209517756016" stroke-miterlimit="10"/></g><g transform="translate(-190,-158) scale(1,1)"><g><path fill="none" stroke="none"/><text fill="#000000" stroke="none" font-family="Arial" font-size="13px" font-style="normal" font-weight="normal" text-decoration="none" x="447.5" y="185.5">«include»</text></g></g><g transform="translate(-190,-158) scale(1,1)"><path fill="none" stroke="#000000" d="M 551 627 L 392 627" stroke-miterlimit="10" stroke-dasharray="3"/></g><g transform="translate(-190,-158) scale(1,1)"><path fill="none" stroke="#000000" d="M 402.16267485762415 622.790482243984 L 392 627 L 402.16267485762415 631.209517756016" stroke-miterlimit="10"/></g><g transform="translate(-190,-158) scale(1,1)"><g><path fill="none" stroke="none"/><text fill="#000000" stroke="none" font-family="Arial" font-size="13px" font-style="normal" font-weight="normal" text-decoration="none" x="446.5" y="648.5">«include»</text></g></g><g transform="translate(-190,-158) scale(1,1)"><path fill="none" stroke="#000000" d="M 695 591 L 656 606" stroke-miterlimit="10" stroke-dasharray="3"/></g><g transform="translate(-190,-158) scale(1,1)"><path fill="none" stroke="#000000" d="M 663.9741591172449 598.4228774344834 L 656 606 L 666.9964167340228 606.280747238106" stroke-miterlimit="10"/></g><g transform="translate(-190,-158) scale(1,1)"><g><path fill="none" stroke="none"/><text fill="#000000" stroke="none" font-family="Arial" font-size="13px" font-style="normal" font-weight="normal" text-decoration="none" x="658.5" y="631.5">«include»</text></g></g><g transform="translate(-190,-158) scale(1,1)"><path fill="none" stroke="#000000" d="M 695 571 L 464 571" stroke-miterlimit="10" stroke-dasharray="3"/></g><g transform="translate(-190,-158) scale(1,1)"><path fill="none" stroke="#000000" d="M 474.16267485762415 566.790482243984 L 464 571 L 474.16267485762415 575.209517756016" stroke-miterlimit="10"/></g><g transform="translate(-190,-158) scale(1,1)"><g><path fill="none" stroke="none"/><text fill="#000000" stroke="none" font-family="Arial" font-size="13px" font-style="normal" font-weight="normal" text-decoration="none" x="543.5" y="563.5">«include»</text></g></g><g transform="translate(-190,-158) scale(1,1)"><path fill="none" stroke="#000000" d="M 783 543 L 822 512" stroke-miterlimit="10" stroke-dasharray="3"/></g><g transform="translate(-190,-158) scale(1,1)"><path fill="none" stroke="#000000" d="M 816.6637694861128 521.6189731210072 L 822 512 L 811.4250740957405 515.028356339571" stroke-miterlimit="10"/></g><g transform="translate(-190,-158) scale(1,1)"><g><path fill="none" stroke="none"/><text fill="#000000" stroke="none" font-family="Arial" font-size="13px" font-style="normal" font-weight="normal" text-decoration="none" x="815.5" y="546.5">«include»</text></g></g><g transform="translate(-190,-158) scale(1,1)"><path fill="none" stroke="#000000" d="M 835 280 L 845 359" stroke-miterlimit="10" stroke-dasharray="3"/></g><g transform="translate(-190,-158) scale(1,1)"><path fill="none" stroke="#000000" d="M 839.547576403165 349.44641025997686 L 845 359 L 847.899962390621 348.38914621093176" stroke-miterlimit="10"/></g><g transform="translate(-190,-158) scale(1,1)"><g><path fill="none" stroke="none"/><text fill="#000000" stroke="none" font-family="Arial" font-size="13px" font-style="normal" font-weight="normal" text-decoration="none" x="841.5" y="321.5">«include»</text></g></g><g transform="translate(-190,-158) scale(1,1)"><path fill="none" stroke="#000000" d="M 794 280 L 448 543" stroke-miterlimit="10" stroke-dasharray="3"/></g><g transform="translate(-190,-158) scale(1,1)"><path fill="none" stroke="#000000" d="M 453.5433325626745 533.4988703777082 L 448 543 L 458.63804123029433 540.2014148605844" stroke-miterlimit="10"/></g><g transform="translate(-190,-158) scale(1,1)"><g><path fill="none" stroke="none"/><text fill="#000000" stroke="none" font-family="Arial" font-size="13px" font-style="normal" font-weight="normal" text-decoration="none" x="611.5" y="440.5">«include»</text></g></g></g></svg>